<svg version="1.1" xmlns="http://www.w3.org/2000/svg" xmlns:xlink="http://www.w3.org/1999/xlink" width="778.00341796875" height="643"><defs/><g><text fill="#eeeeee" stroke="none" font-family="Arial" font-size="24px" font-style="normal" font-weight="normal" text-decoration="none" x="0" y="0">UNREGISTERED</text><text fill="#eeeeee" stroke="none" font-family="Arial" font-size="24px" font-style="normal" font-weight="normal" text-decoration="none" x="0" y="30">UNREGISTERED</text><text fill="#eeeeee" stroke="none" font-family="Arial" font-size="24px" font-style="normal" font-weight="normal" text-decoration="none" x="0" y="60">UNREGISTERED</text><text fill="#eeeeee" stroke="none" font-family="Arial" font-size="24px" font-style="normal" font-weight="normal" text-decoration="none" x="0" y="90">UNREGISTERED</text><text fill="#eeeeee" stroke="none" font-family="Arial" font-size="24px" font-style="normal" font-weight="normal" text-decoration="none" x="0" y="120">UNREGISTERED</text><text fill="#eeeeee" stroke="none" font-family="Arial" font-size="24px" font-style="normal" font-weight="normal" text-decoration="none" x="0" y="150">UNREGISTERED</text><text fill="#eeeeee" stroke="none" font-family="Arial" font-size="24px" font-style="normal" font-weight="normal" text-decoration="none" x="0" y="180">UNREGISTERED</text><text fill="#eeeeee" stroke="none" font-family="Arial" font-size="24px" font-style="normal" font-weight="normal" text-decoration="none" x="0" y="210">UNREGISTERED</text><text fill="#eeeeee" stroke="none" font-family="Arial" font-size="24px" font-style="normal" font-weight="normal" text-decoration="none" x="0" y="240">UNREGISTERED</text><text fill="#eeeeee" stroke="none" font-family="Arial" font-size="24px" font-style="normal" font-weight="normal" text-decoration="none" x="0" y="270">UNREGISTERED</text><text fill="#eeeeee" stroke="none" font-family="Arial" font-size="24px" font-style="normal" font-weight="normal" text-decoration="none" x="0" y="300">UNREGISTERED</text><text fill="#eeeeee" stroke="none" font-family="Arial" font-size="24px" font-style="normal" font-weight="normal" text-decoration="none" x="0" y="330">UNREGISTERED</text><text fill="#eeeeee" stroke="none" font-family="Arial" font-size="24px" font-style="normal" font-weight="normal" text-decoration="none" x="0" y="360">UNREGISTERED</text><text fill="#eeeeee" stroke="none" font-family="Arial" font-size="24px" font-style="normal" font-weight="normal" text-decoration="none" x="0" y="390">UNREGISTERED</text><text fill="#eeeeee" stroke="none" font-family="Arial" font-size="24px" font-style="normal" font-weight="normal" text-decoration="none" x="0" y="420">UNREGISTERED</text><text fill="#eeeeee" stroke="none" font-family="Arial" font-size="24px" font-style="normal" font-weight="normal" text-decoration="none" x="0" y="450">UNREGISTERED</text><text fill="#eeeeee" stroke="none" font-family="Arial" font-size="24px" font-style="normal" font-weight="normal" text-decoration="none" x="0" y="480">UNREGISTERED</text><text fill="#eeeeee" stroke="none" font-family="Arial" font-size="24px" font-style="normal" font-weight="normal" text-decoration="none" x="0" y="510">UNREGISTERED</text><text fill="#eeeeee" stroke="none" font-family="Arial" font-size="24px" font-style="normal" font-weight="normal" text-decoration="none" x="0" y="540">UNREGISTERED</text><text fill="#eeeeee" stroke="none" font-family="Arial" font-size="24px" font-style="normal" font-weight="normal" text-decoration="none" x="0" y="570">UNREGISTERED</text><text fill="#eeeeee" stroke="none" font-family="Arial" font-size="24px" font-style="normal" font-weight="normal" text-decoration="none" x="0" y="600">UNREGISTERED</text><text fill="#eeeeee" stroke="none" font-family="Arial" font-size="24px" font-style="normal" font-weight="normal" text-decoration="none" x="0" y="630">UNREGISTERED</text><text fill="#eeeeee" stroke="none" font-family="Arial" font-size="24px" font-style="normal" font-weight="normal" text-decoration="none" x="200" y="0">UNREGISTERED</text><text fill="#eeeeee" stroke="none" font-family="Arial" font-size="24px" font-style="normal" font-weight="normal" text-decoration="none" x="200" y="30">UNREGISTERED</text><text fill="#eeeeee" stroke="none" font-family="Arial" font-size="24px" font-style="normal" font-weight="normal" text-decoration="none" x="200" y="60">UNREGISTERED</text><text fill="#eeeeee" stroke="none" font-family="Arial" font-size="24px" font-style="normal" font-weight="normal" text-decoration="none" x="200" y="90">UNREGISTERED</text><text fill="#eeeeee" stroke="none" font-family="Arial" font-size="24px" font-style="normal" font-weight="normal" text-decoration="none" x="200" y="120">UNREGISTERED</text><text fill="#eeeeee" stroke="none" font-family="Arial" font-size="24px" font-style="normal" font-weight="normal" text-decoration="none" x="200" y="150">UNREGISTERED</text><text fill="#eeeeee" stroke="none" font-family="Arial" font-size="24px" font-style="normal" font-weight="normal" text-decoration="none" x="200" y="180">UNREGISTERED</text><text fill="#eeeeee" stroke="none" font-family="Arial" font-size="24px" font-style="normal" font-weight="normal" text-decoration="none" x="200" y="210">UNREGISTERED</text><text fill="#eeeeee" stroke="none" font-family="Arial" font-size="24px" font-style="normal" font-weight="normal" text-decoration="none" x="200" y="240">UNREGISTERED</text><text fill="#eeeeee" stroke="none" font-family="Arial" font-size="24px" font-style="normal" font-weight="normal" text-decoration="none" x="200" y="270">UNREGISTERED</text><text fill="#eeeeee" stroke="none" font-family="Arial" font-size="24px" font-style="normal" font-weight="normal" text-decoration="none" x="200" y="300">UNREGISTERED</text><text fill="#eeeeee" stroke="none" font-family="Arial" font-size="24px" font-style="normal" font-weight="normal" text-decoration="none" x="200" y="330">UNREGISTERED</text><text fill="#eeeeee" stroke="none" font-family="Arial" font-size="24px" font-style="normal" font-weight="normal" text-decoration="none" x="200" y="360">UNREGISTERED</text><text fill="#eeeeee" stroke="none" font-family="Arial" font-size="24px" font-style="normal" font-weight="normal" text-decoration="none" x="200" y="390">UNREGISTERED</text><text fill="#eeeeee" stroke="none" font-family="Arial" font-size="24px" font-style="normal" font-weight="normal" text-decoration="none" x="200" y="420">UNREGISTERED</text><text fill="#eeeeee" stroke="none" font-family="Arial" font-size="24px" font-style="normal" font-weight="normal" text-decoration="none" x="200" y="450">UNREGISTERED</text><text fill="#eeeeee" stroke="none" font-family="Arial" font-size="24px" font-style="normal" font-weight="normal" text-decoration="none" x="200" y="480">UNREGISTERED</text><text fill="#eeeeee" stroke="none" font-family="Arial" font-size="24px" font-style="normal" font-weight="normal" text-decoration="none" x="200" y="510">UNREGISTERED</text><text fill="#eeeeee" stroke="none" font-family="Arial" font-size="24px" font-style="normal" font-weight="normal" text-decoration="none" x="200" y="540">UNREGISTERED</text><text fill="#eeeeee" stroke="none" font-family="Arial" font-size="24px" font-style="normal" font-weight="normal" text-decoration="none" x="200" y="570">UNREGISTERED</text><text fill="#eeeeee" stroke="none" font-family="Arial" font-size="24px" font-style="normal" font-weight="normal" text-decoration="none" x="200" y="600">UNREGISTERED</text><text fill="#eeeeee" stroke="none" font-family="Arial" font-size="24px" font-style="normal" font-weight="normal" text-decoration="none" x="200" y="630">UNREGISTERED</text><text fill="#eeeeee" stroke="none" font-family="Arial" font-size="24px" font-style="normal" font-weight="normal" text-decoration="none" x="400" y="0">UNREGISTERED</text><text fill="#eeeeee" stroke="none" font-family="Arial" font-size="24px" font-style="normal" font-weight="normal" text-decoration="none" x="400" y="30">UNREGISTERED</text><text fill="#eeeeee" stroke="none" font-family="Arial" font-size="24px" font-style="normal" font-weight="normal" text-decoration="none" x="400" y="60">UNREGISTERED</text><text fill="#eeeeee" stroke="none" font-family="Arial" font-size="24px" font-style="normal" font-weight="normal" text-decoration="none" x="400" y="90">UNREGISTERED</text><text fill="#eeeeee" stroke="none" font-family="Arial" font-size="24px" font-style="normal" font-weight="normal" text-decoration="none" x="400" y="120">UNREGISTERED</text><text fill="#eeeeee" stroke="none" font-family="Arial" font-size="24px" font-style="normal" font-weight="normal" text-decoration="none" x="400" y="150">UNREGISTERED</text><text fill="#eeeeee" stroke="none" font-family="Arial" font-size="24px" font-style="normal" font-weight="normal" text-decoration="none" x="400" y="180">UNREGISTERED</text><text fill="#eeeeee" stroke="none" font-family="Arial" font-size="24px" font-style="normal" font-weight="normal" text-decoration="none" x="400" y="210">UNREGISTERED</text><text fill="#eeeeee" stroke="none" font-family="Arial" font-size="24px" font-style="normal" font-weight="normal" text-decoration="none" x="400" y="240">UNREGISTERED</text><text fill="#eeeeee" stroke="none" font-family="Arial" font-size="24px" font-style="normal" font-weight="normal" text-decoration="none" x="400" y="270">UNREGISTERED</text><text fill="#eeeeee" stroke="none" font-family="Arial" font-size="24px" font-style="normal" font-weight="normal" text-decoration="none" x="400" y="300">UNREGISTERED</text><text fill="#eeeeee" stroke="none" font-family="Arial" font-size="24px" font-style="normal" font-weight="normal" text-decoration="none" x="400" y="330">UNREGISTERED</text><text fill="#eeeeee" stroke="none" font-family="Arial" font-size="24px" font-style="normal" font-weight="normal" text-decoration="none" x="400" y="360">UNREGISTERED</text><text fill="#eeeeee" stroke="none" font-family="Arial" font-size="24px" font-style="normal" font-weight="normal" text-decoration="none" x="400" y="390">UNREGISTERED</text><text fill="#eeeeee" stroke="none" font-family="Arial" font-size="24px" font-style="normal" font-weight="normal" text-decoration="none" x="400" y="420">UNREGISTERED</text><text fill="#eeeeee" stroke="none" font-family="Arial" font-size="24px" font-style="normal" font-weight="normal" text-decoration="none" x="400" y="450">UNREGISTERED</text><text fill="#eeeeee" stroke="none" font-family="Arial" font-size="24px" font-style="normal" font-weight="normal" text-decoration="none" x="400" y="480">UNREGISTERED</text><text fill="#eeeeee" stroke="none" font-family="Arial" font-size="24px" font-style="normal" font-weight="normal" text-decoration="none" x="400" y="510">UNREGISTERED</text><text fill="#eeeeee" stroke="none" font-family="Arial" font-size="24px" font-style="normal" font-weight="normal" text-decoration="none" x="400" y="540">UNREGISTERED</text><text fill="#eeeeee" stroke="none" font-family="Arial" font-size="24px" font-style="normal" font-weight="normal" text-decoration="none" x="400" y="570">UNREGISTERED</text><text fill="#eeeeee" stroke="none" font-family="Arial" font-size="24px" font-style="normal" font-weight="normal" text-decoration="none" x="400" y="600">UNREGISTERED</text><text fill="#eeeeee" stroke="none" font-family="Arial" font-size="24px" font-style="normal" font-weight="normal" text-decoration="none" x="400" y="630">UNREGISTERED</text><text fill="#eeeeee" stroke="none" font-family="Arial" font-size="24px" font-style="normal" font-weight="normal" text-decoration="none" x="600" y="0">UNREGISTERED</text><text fill="#eeeeee" stroke="none" font-family="Arial" font-size="24px" font-style="normal" font-weight="normal" text-decoration="none" x="600" y="30">UNREGISTERED</text><text fill="#eeeeee" stroke="none" font-family="Arial" font-size="24px" font-style="normal" font-weight="normal" text-decoration="none" x="600" y="60">UNREGISTERED</text><text fill="#eeeeee" stroke="none" font-family="Arial" font-size="24px" font-style="normal" font-weight="normal" text-decoration="none" x="600" y="90">UNREGISTERED</text><text fill="#eeeeee" stroke="none" font-family="Arial" font-size="24px" font-style="normal" font-weight="normal" text-decoration="none" x="600" y="120">UNREGISTERED</text><text fill="#eeeeee" stroke="none" font-family="Arial" font-size="24px" font-style="normal" font-weight="normal" text-decoration="none" x="600" y="150">UNREGISTERED</text><text fill="#eeeeee" stroke="none" font-family="Arial" font-size="24px" font-style="normal" font-weight="normal" text-decoration="none" x="600" y="180">UNREGISTERED</text><text fill="#eeeeee" stroke="none" font-family="Arial" font-size="24px" font-style="normal" font-weight="normal" text-decoration="none" x="600" y="210">UNREGISTERED</text><text fill="#eeeeee" stroke="none" font-family="Arial" font-size="24px" font-style="normal" font-weight="normal" text-decoration="none" x="600" y="240">UNREGISTERED</text><text fill="#eeeeee" stroke="none" font-family="Arial" font-size="24px" font-style="normal" font-weight="normal" text-decoration="none" x="600" y="270">UNREGISTERED</text><text fill="#eeeeee" stroke="none" font-family="Arial" font-size="24px" font-style="normal" font-weight="normal" text-decoration="none" x="600" y="300">UNREGISTERED</text><text fill="#eeeeee" stroke="none" font-family="Arial" font-size="24px" font-style="normal" font-weight="normal" text-decoration="none" x="600" y="330">UNREGISTERED</text><text fill="#eeeeee" stroke="none" font-family="Arial" font-size="24px" font-style="normal" font-weight="normal" text-decoration="none" x="600" y="360">UNREGISTERED</text><text fill="#eeeeee" stroke="none" font-family="Arial" font-size="24px" font-style="normal" font-weight="normal" text-decoration="none" x="600" y="390">UNREGISTERED</text><text fill="#eeeeee" stroke="none" font-family="Arial" font-size="24px" font-style="normal" font-weight="normal" text-decoration="none" x="600" y="420">UNREGISTERED</text><text fill="#eeeeee" stroke="none" font-family="Arial" font-size="24px" font-style="normal" font-weight="normal" text-decoration="none" x="600" y="450">UNREGISTERED</text><text fill="#eeeeee" stroke="none" font-family="Arial" font-size="24px" font-style="normal" font-weight="normal" text-decoration="none" x="600" y="480">UNREGISTERED</text><text fill="#eeeeee" stroke="none" font-family="Arial" font-size="24px" font-style="normal" font-weight="normal" text-decoration="none" x="600" y="510">UNREGISTERED</text><text fill="#eeeeee" stroke="none" font-family="Arial" font-size="24px" font-style="normal" font-weight="normal" text-decoration="none" x="600" y="540">UNREGISTERED</text><text fill="#eeeeee" stroke="none" font-family="Arial" font-size="24px" font-style="normal" font-weight="normal" text-decoration="none" x="600" y="570">UNREGISTERED</text><text fill="#eeeeee" stroke="none" font-family="Arial" font-size="24px" font-style="normal" font-weight="normal" text-decoration="none" x="600" y="600">UNREGISTERED</text><text fill="#eeeeee" stroke="none" font-family="Arial" font-size="24px" font-style="normal" font-weight="normal" text-decoration="none" x="600" y="630">UNREGISTERED</text><g transform="translate(-150,-38) scale(1,1)"><path fill="#ffffff" stroke="none" d="M 384 48 L 661 48 L 671 58 L 671 95 L 384 95 L 384 48"/></g><g transform="translate(-150,-38) scale(1,1)"><path fill="none" stroke="#000000" d="M 384 48 L 661 48 L 671 58 L 671 95 L 384 95 L 384 48 L 384 48" stroke-miterlimit="10"/></g><g transform="translate(-150,-38) scale(1,1)"><path fill="none" stroke="#000000" d="M 661 48 L 661 58 L 671 58 L 661 48" stroke-miterlimit="10"/></g><g transform="translate(-150,-38) scale(1,1)"><g><path fill="none" stroke="none"/><text fill="#000000" stroke="none" font-family="Arial" font-size="18px" font-style="normal" font-weight="normal" text-decoration="none" x="389" y="71">Diagramme de classes avec les</text><text fill="#000000" stroke="none" font-family="Arial" font-size="18px" font-style="normal" font-weight="normal" text-decoration="none" x="389" y="89">controllers et models CodeIgniter</text></g></g><g transform="translate(-150,-38) scale(1,1)"><rect fill="#C0C0C0" stroke="none" x="167" y="175" width="89.57080078125" height="57" opacity="0.2"/></g><g transform="translate(-150,-38) scale(1,1)"><rect fill="#ffffff" stroke="none" x="160" y="168" width="89.57080078125" height="57"/></g><g transform="translate(-150,-38) scale(1,1)"><path fill="none" stroke="#000000" d="M 160 168 L 249.57080078125 168 L 249.57080078125 225 L 160 225 L 160 168 Z Z" stroke-miterlimit="10"/></g><g transform="translate(-150,-38) scale(1,1)"><path fill="none" stroke="#000000" d="M 160 193 L 249.57080078125 193" stroke-miterlimit="10"/></g><g transform="translate(-150,-38) scale(1,1)"><path fill="none" stroke="#000000" d="M 160 203 L 249.57080078125 203" stroke-miterlimit="10"/></g><g transform="translate(-150,-38) scale(1,1)"><g><path fill="none" stroke="none"/><text fill="#000000" stroke="none" font-family="Arial" font-size="13px" font-style="normal" font-weight="bold" text-decoration="none" x="183.831787109375" y="187.5">Accueil</text></g></g><g transform="translate(-150,-38) scale(1,1)"><g><path fill="none" stroke="none"/><text fill="#000000" stroke="none" font-family="Arial" font-size="13px" font-style="normal" font-weight="normal" text-decoration="none" x="165" y="220.5">+index()</text></g></g><g transform="translate(-150,-38) scale(1,1)"><rect fill="#C0C0C0" stroke="none" x="479" y="591" width="128.93896484375" height="87" opacity="0.2"/></g><g transform="translate(-150,-38) scale(1,1)"><rect fill="#ffffff" stroke="none" x="472" y="584" width="128.93896484375" height="87"/></g><g transform="translate(-150,-38) scale(1,1)"><path fill="none" stroke="#000000" d="M 472 584 L 600.93896484375 584 L 600.93896484375 671 L 472 671 L 472 584 Z Z" stroke-miterlimit="10"/></g><g transform="translate(-150,-38) scale(1,1)"><path fill="none" stroke="#000000" d="M 472 609 L 600.93896484375 609" stroke-miterlimit="10"/></g><g transform="translate(-150,-38) scale(1,1)"><path fill="none" stroke="#000000" d="M 472 619 L 600.93896484375 619" stroke-miterlimit="10"/></g><g transform="translate(-150,-38) scale(1,1)"><g><path fill="none" stroke="none"/><text fill="#000000" stroke="none" font-family="Arial" font-size="13px" font-style="normal" font-weight="bold" text-decoration="none" x="510.450439453125" y="603.5">Reponse</text></g></g><g transform="translate(-150,-38) scale(1,1)"><g><path fill="none" stroke="none"/><text fill="#000000" stroke="none" font-family="Arial" font-size="13px" font-style="normal" font-weight="normal" text-decoration="none" x="477" y="636.5">+formulaire($clé = 0)</text></g></g><g transform="translate(-150,-38) scale(1,1)"><g><path fill="none" stroke="none"/><text fill="#000000" stroke="none" font-family="Arial" font-size="13px" font-style="normal" font-weight="normal" text-decoration="none" x="477" y="651.5">+save_answers()</text></g></g><g transform="translate(-150,-38) scale(1,1)"><g><path fill="none" stroke="none"/><text fill="#000000" stroke="none" font-family="Arial" font-size="13px" font-style="normal" font-weight="normal" text-decoration="none" x="477" y="666.5">+ok()</text></g></g><g transform="translate(-150,-38) scale(1,1)"><rect fill="#C0C0C0" stroke="none" x="167" y="487" width="89.57080078125" height="57" opacity="0.2"/></g><g transform="translate(-150,-38) scale(1,1)"><rect fill="#ffffff" stroke="none" x="160" y="480" width="89.57080078125" height="57"/></g><g transform="translate(-150,-38) scale(1,1)"><path fill="none" stroke="#000000" d="M 160 480 L 249.57080078125 480 L 249.57080078125 537 L 160 537 L 160 480 Z Z" stroke-miterlimit="10"/></g><g transform="translate(-150,-38) scale(1,1)"><path fill="none" stroke="#000000" d="M 160 505 L 249.57080078125 505" stroke-miterlimit="10"/></g><g transform="translate(-150,-38) scale(1,1)"><path fill="none" stroke="#000000" d="M 160 515 L 249.57080078125 515" stroke-miterlimit="10"/></g><g transform="translate(-150,-38) scale(1,1)"><g><path fill="none" stroke="none"/><text fill="#000000" stroke="none" font-family="Arial" font-size="13px" font-style="normal" font-weight="bold" text-decoration="none" x="175.160888671875" y="499.5">Inscription</text></g></g><g transform="translate(-150,-38) scale(1,1)"><g><path fill="none" stroke="none"/><text fill="#000000" stroke="none" font-family="Arial" font-size="13px" font-style="normal" font-weight="normal" text-decoration="none" x="165" y="532.5">+index()</text></g></g><g transform="translate(-150,-38) scale(1,1)"><rect fill="#C0C0C0" stroke="none" x="735" y="423" width="190.00341796875" height="117" opacity="0.2"/></g><g transform="translate(-150,-38) scale(1,1)"><rect fill="#ffffff" stroke="none" x="728" y="416" width="190.00341796875" height="117"/></g><g transform="translate(-150,-38) scale(1,1)"><path fill="none" stroke="#000000" d="M 728 416 L 918.00341796875 416 L 918.00341796875 533 L 728 533 L 728 416 Z Z" stroke-miterlimit="10"/></g><g transform="translate(-150,-38) scale(1,1)"><path fill="none" stroke="#000000" d="M 728 441 L 918.00341796875 441" stroke-miterlimit="10"/></g><g transform="translate(-150,-38) scale(1,1)"><path fill="none" stroke="#000000" d="M 728 451 L 918.00341796875 451" stroke-miterlimit="10"/></g><g transform="translate(-150,-38) scale(1,1)"><g><path fill="none" stroke="none"/><text fill="#000000" stroke="none" font-family="Arial" font-size="13px" font-style="normal" font-weight="bold" text-decoration="none" x="765.92041015625" y="435.5">Creation_formulaire</text></g></g><g transform="translate(-150,-38) scale(1,1)"><g><path fill="none" stroke="none"/><text fill="#000000" stroke="none" font-family="Arial" font-size="13px" font-style="normal" font-weight="normal" text-decoration="none" x="733" y="468.5">+index()</text></g></g><g transform="translate(-150,-38) scale(1,1)"><g><path fill="none" stroke="none"/><text fill="#000000" stroke="none" font-family="Arial" font-size="13px" font-style="normal" font-weight="normal" text-decoration="none" x="733" y="483.5">+activation_formulaire($clé)</text></g></g><g transform="translate(-150,-38) scale(1,1)"><g><path fill="none" stroke="none"/><text fill="#000000" stroke="none" font-family="Arial" font-size="13px" font-style="normal" font-weight="normal" text-decoration="none" x="733" y="498.5">+desactivation_formulaire($clé)</text></g></g><g transform="translate(-150,-38) scale(1,1)"><g><path fill="none" stroke="none"/><text fill="#000000" stroke="none" font-family="Arial" font-size="13px" font-style="normal" font-weight="normal" text-decoration="none" x="733" y="513.5">+suppression_formulaire($clé)</text></g></g><g transform="translate(-150,-38) scale(1,1)"><rect fill="#C0C0C0" stroke="none" x="711" y="167" width="153.87255859375" height="117" opacity="0.2"/></g><g transform="translate(-150,-38) scale(1,1)"><rect fill="#ffffff" stroke="none" x="704" y="160" width="153.87255859375" height="117"/></g><g transform="translate(-150,-38) scale(1,1)"><path fill="none" stroke="#000000" d="M 704 160 L 857.87255859375 160 L 857.87255859375 277 L 704 277 L 704 160 Z Z" stroke-miterlimit="10"/></g><g transform="translate(-150,-38) scale(1,1)"><path fill="none" stroke="#000000" d="M 704 185 L 857.87255859375 185" stroke-miterlimit="10"/></g><g transform="translate(-150,-38) scale(1,1)"><path fill="none" stroke="#000000" d="M 704 195 L 857.87255859375 195" stroke-miterlimit="10"/></g><g transform="translate(-150,-38) scale(1,1)"><g><path fill="none" stroke="none"/><text fill="#000000" stroke="none" font-family="Arial" font-size="13px" font-style="normal" font-weight="bold" text-decoration="none" x="749.1376953125" y="179.5">Dashboard</text></g></g><g transform="translate(-150,-38) scale(1,1)"><g><path fill="none" stroke="none"/><text fill="#000000" stroke="none" font-family="Arial" font-size="13px" font-style="normal" font-weight="normal" text-decoration="none" x="709" y="212.5">+index()</text></g></g><g transform="translate(-150,-38) scale(1,1)"><g><path fill="none" stroke="none"/><text fill="#000000" stroke="none" font-family="Arial" font-size="13px" font-style="normal" font-weight="normal" text-decoration="none" x="709" y="227.5">+creer_formulaire()</text></g></g><g transform="translate(-150,-38) scale(1,1)"><g><path fill="none" stroke="none"/><text fill="#000000" stroke="none" font-family="Arial" font-size="13px" font-style="normal" font-weight="normal" text-decoration="none" x="709" y="242.5">+acces_formulaire()</text></g></g><g transform="translate(-150,-38) scale(1,1)"><g><path fill="none" stroke="none"/><text fill="#000000" stroke="none" font-family="Arial" font-size="13px" font-style="normal" font-weight="normal" text-decoration="none" x="709" y="257.5">+apercu_formulaire($clé)</text></g></g><g transform="translate(-150,-38) scale(1,1)"><g><path fill="none" stroke="none"/><text fill="#000000" stroke="none" font-family="Arial" font-size="13px" font-style="normal" font-weight="normal" text-decoration="none" x="709" y="272.5">+reponses($clé)</text></g></g><g transform="translate(-150,-38) scale(1,1)"><rect fill="#C0C0C0" stroke="none" x="207" y="287" width="98.97802734375" height="72" opacity="0.2"/></g><g transform="translate(-150,-38) scale(1,1)"><rect fill="#ffffff" stroke="none" x="200" y="280" width="98.97802734375" height="72"/></g><g transform="translate(-150,-38) scale(1,1)"><path fill="none" stroke="#000000" d="M 200 280 L 298.97802734375 280 L 298.97802734375 352 L 200 352 L 200 280 Z Z" stroke-miterlimit="10"/></g><g transform="translate(-150,-38) scale(1,1)"><path fill="none" stroke="#000000" d="M 200 305 L 298.97802734375 305" stroke-miterlimit="10"/></g><g transform="translate(-150,-38) scale(1,1)"><path fill="none" stroke="#000000" d="M 200 315 L 298.97802734375 315" stroke-miterlimit="10"/></g><g transform="translate(-150,-38) scale(1,1)"><g><path fill="none" stroke="none"/><text fill="#000000" stroke="none" font-family="Arial" font-size="13px" font-style="normal" font-weight="bold" text-decoration="none" x="218.410888671875" y="299.5">Connexion</text></g></g><g transform="translate(-150,-38) scale(1,1)"><g><path fill="none" stroke="none"/><text fill="#000000" stroke="none" font-family="Arial" font-size="13px" font-style="normal" font-weight="normal" text-decoration="none" x="205" y="332.5">+index()</text></g></g><g transform="translate(-150,-38) scale(1,1)"><g><path fill="none" stroke="none"/><text fill="#000000" stroke="none" font-family="Arial" font-size="13px" font-style="normal" font-weight="normal" text-decoration="none" x="205" y="347.5">+deconnexion()</text></g></g><g transform="translate(-150,-38) scale(1,1)"><rect fill="#C0C0C0" stroke="none" x="423" y="151" width="210.26513671875" height="357" opacity="0.2"/></g><g transform="translate(-150,-38) scale(1,1)"><rect fill="#ffffff" stroke="none" x="416" y="144" width="210.26513671875" height="357"/></g><g transform="translate(-150,-38) scale(1,1)"><path fill="none" stroke="#000000" d="M 416 144 L 626.26513671875 144 L 626.26513671875 501 L 416 501 L 416 144 Z Z" stroke-miterlimit="10"/></g><g transform="translate(-150,-38) scale(1,1)"><path fill="none" stroke="#000000" d="M 416 169 L 626.26513671875 169" stroke-miterlimit="10"/></g><g transform="translate(-150,-38) scale(1,1)"><path fill="none" stroke="#000000" d="M 416 179 L 626.26513671875 179" stroke-miterlimit="10"/></g><g transform="translate(-150,-38) scale(1,1)"><g><path fill="none" stroke="none"/><text fill="#000000" stroke="none" font-family="Arial" font-size="13px" font-style="normal" font-weight="bold" text-decoration="none" x="493.3076171875" y="163.5">Database</text></g></g><g transform="translate(-150,-38) scale(1,1)"><g><path fill="none" stroke="none"/><text fill="#000000" stroke="none" font-family="Arial" font-size="13px" font-style="normal" font-weight="normal" text-decoration="none" x="421" y="196.5">+login_exists($login)</text></g></g><g transform="translate(-150,-38) scale(1,1)"><g><path fill="none" stroke="none"/><text fill="#000000" stroke="none" font-family="Arial" font-size="13px" font-style="normal" font-weight="normal" text-decoration="none" x="421" y="211.5">+insert_inscrit($data)</text></g></g><g transform="translate(-150,-38) scale(1,1)"><g><path fill="none" stroke="none"/><text fill="#000000" stroke="none" font-family="Arial" font-size="13px" font-style="normal" font-weight="normal" text-decoration="none" x="421" y="226.5">+get_hash($login)</text></g></g><g transform="translate(-150,-38) scale(1,1)"><g><path fill="none" stroke="none"/><text fill="#000000" stroke="none" font-family="Arial" font-size="13px" font-style="normal" font-weight="normal" text-decoration="none" x="421" y="241.5">+get_rand_key()</text></g></g><g transform="translate(-150,-38) scale(1,1)"><g><path fill="none" stroke="none"/><text fill="#000000" stroke="none" font-family="Arial" font-size="13px" font-style="normal" font-weight="normal" text-decoration="none" x="421" y="256.5">+insert_question($data)</text></g></g><g transform="translate(-150,-38) scale(1,1)"><g><path fill="none" stroke="none"/><text fill="#000000" stroke="none" font-family="Arial" font-size="13px" font-style="normal" font-weight="normal" text-decoration="none" x="421" y="271.5">+insert_formulaire($data)</text></g></g><g transform="translate(-150,-38) scale(1,1)"><g><path fill="none" stroke="none"/><text fill="#000000" stroke="none" font-family="Arial" font-size="13px" font-style="normal" font-weight="normal" text-decoration="none" x="421" y="286.5">+insert_zonechamptexte($data)</text></g></g><g transform="translate(-150,-38) scale(1,1)"><g><path fill="none" stroke="none"/><text fill="#000000" stroke="none" font-family="Arial" font-size="13px" font-style="normal" font-weight="normal" text-decoration="none" x="421" y="301.5">+insert_checkbox($data)</text></g></g><g transform="translate(-150,-38) scale(1,1)"><g><path fill="none" stroke="none"/><text fill="#000000" stroke="none" font-family="Arial" font-size="13px" font-style="normal" font-weight="normal" text-decoration="none" x="421" y="316.5">+insert_listederoulanteradio($data)</text></g></g><g transform="translate(-150,-38) scale(1,1)"><g><path fill="none" stroke="none"/><text fill="#000000" stroke="none" font-family="Arial" font-size="13px" font-style="normal" font-weight="normal" text-decoration="none" x="421" y="331.5">+get_form_info($login)</text></g></g><g transform="translate(-150,-38) scale(1,1)"><g><path fill="none" stroke="none"/><text fill="#000000" stroke="none" font-family="Arial" font-size="13px" font-style="normal" font-weight="normal" text-decoration="none" x="421" y="346.5">+set_requis($clé, $bool)</text></g></g><g transform="translate(-150,-38) scale(1,1)"><g><path fill="none" stroke="none"/><text fill="#000000" stroke="none" font-family="Arial" font-size="13px" font-style="normal" font-weight="normal" text-decoration="none" x="421" y="361.5">+delete_formulaire($clé)</text></g></g><g transform="translate(-150,-38) scale(1,1)"><g><path fill="none" stroke="none"/><text fill="#000000" stroke="none" font-family="Arial" font-size="13px" font-style="normal" font-weight="normal" text-decoration="none" x="421" y="376.5">+get_formulaire($clé)</text></g></g><g transform="translate(-150,-38) scale(1,1)"><g><path fill="none" stroke="none"/><text fill="#000000" stroke="none" font-family="Arial" font-size="13px" font-style="normal" font-weight="normal" text-decoration="none" x="421" y="391.5">+get_question($clé)</text></g></g><g transform="translate(-150,-38) scale(1,1)"><g><path fill="none" stroke="none"/><text fill="#000000" stroke="none" font-family="Arial" font-size="13px" font-style="normal" font-weight="normal" text-decoration="none" x="421" y="406.5">+get_checkbox($clé)</text></g></g><g transform="translate(-150,-38) scale(1,1)"><g><path fill="none" stroke="none"/><text fill="#000000" stroke="none" font-family="Arial" font-size="13px" font-style="normal" font-weight="normal" text-decoration="none" x="421" y="421.5">+get_listeradio($clé)</text></g></g><g transform="translate(-150,-38) scale(1,1)"><g><path fill="none" stroke="none"/><text fill="#000000" stroke="none" font-family="Arial" font-size="13px" font-style="normal" font-weight="normal" text-decoration="none" x="421" y="436.5">+get_zonechamptexte($clé)</text></g></g><g transform="translate(-150,-38) scale(1,1)"><g><path fill="none" stroke="none"/><text fill="#000000" stroke="none" font-family="Arial" font-size="13px" font-style="normal" font-weight="normal" text-decoration="none" x="421" y="451.5">+form_exists($clé)</text></g></g><g transform="translate(-150,-38) scale(1,1)"><g><path fill="none" stroke="none"/><text fill="#000000" stroke="none" font-family="Arial" font-size="13px" font-style="normal" font-weight="normal" text-decoration="none" x="421" y="466.5">+insert_reponse($data)</text></g></g><g transform="translate(-150,-38) scale(1,1)"><g><path fill="none" stroke="none"/><text fill="#000000" stroke="none" font-family="Arial" font-size="13px" font-style="normal" font-weight="normal" text-decoration="none" x="421" y="481.5">+form_inactif($clé)</text></g></g><g transform="translate(-150,-38) scale(1,1)"><g><path fill="none" stroke="none"/><text fill="#000000" stroke="none" font-family="Arial" font-size="13px" font-style="normal" font-weight="normal" text-decoration="none" x="421" y="496.5">+get_reponse($clé)</text></g></g><g transform="translate(-150,-38) scale(1,1)"><path fill="none" stroke="#000000" d="M 251 481 L 415 384" stroke-miterlimit="10"/></g><g transform="translate(-150,-38) scale(1,1)"><path fill="none" stroke="#000000" d="M 300 317 L 415 320" stroke-miterlimit="10"/></g><g transform="translate(-150,-38) scale(1,1)"><path fill="none" stroke="#000000" d="M 534 583 L 530 502" stroke-miterlimit="10"/></g><g transform="translate(-150,-38) scale(1,1)"><path fill="none" stroke="#000000" d="M 727 426 L 627 375" stroke-miterlimit="10"/></g><g transform="translate(-150,-38) scale(1,1)"><path fill="none" stroke="#000000" d="M 703 249 L 627 279" stroke-miterlimit="10"/></g></g></svg>