<svg version="1.1" xmlns="http://www.w3.org/2000/svg" xmlns:xlink="http://www.w3.org/1999/xlink" width="918.17724609375" height="787"><defs/><g><text fill="#eeeeee" stroke="none" font-family="Arial" font-size="24px" font-style="normal" font-weight="normal" text-decoration="none" x="0" y="0"></text><text fill="#eeeeee" stroke="none" font-family="Arial" font-size="24px" font-style="normal" font-weight="normal" text-decoration="none" x="0" y="30"></text><text fill="#eeeeee" stroke="none" font-family="Arial" font-size="24px" font-style="normal" font-weight="normal" text-decoration="none" x="0" y="60"></text><text fill="#eeeeee" stroke="none" font-family="Arial" font-size="24px" font-style="normal" font-weight="normal" text-decoration="none" x="0" y="90"></text><text fill="#eeeeee" stroke="none" font-family="Arial" font-size="24px" font-style="normal" font-weight="normal" text-decoration="none" x="0" y="120"></text><text fill="#eeeeee" stroke="none" font-family="Arial" font-size="24px" font-style="normal" font-weight="normal" text-decoration="none" x="0" y="150"></text><text fill="#eeeeee" stroke="none" font-family="Arial" font-size="24px" font-style="normal" font-weight="normal" text-decoration="none" x="0" y="180"></text><text fill="#eeeeee" stroke="none" font-family="Arial" font-size="24px" font-style="normal" font-weight="normal" text-decoration="none" x="0" y="210"></text><text fill="#eeeeee" stroke="none" font-family="Arial" font-size="24px" font-style="normal" font-weight="normal" text-decoration="none" x="0" y="240"></text><text fill="#eeeeee" stroke="none" font-family="Arial" font-size="24px" font-style="normal" font-weight="normal" text-decoration="none" x="0" y="270"></text><text fill="#eeeeee" stroke="none" font-family="Arial" font-size="24px" font-style="normal" font-weight="normal" text-decoration="none" x="0" y="300"></text><text fill="#eeeeee" stroke="none" font-family="Arial" font-size="24px" font-style="normal" font-weight="normal" text-decoration="none" x="0" y="330"></text><text fill="#eeeeee" stroke="none" font-family="Arial" font-size="24px" font-style="normal" font-weight="normal" text-decoration="none" x="0" y="360"></text><text fill="#eeeeee" stroke="none" font-family="Arial" font-size="24px" font-style="normal" font-weight="normal" text-decoration="none" x="0" y="390"></text><text fill="#eeeeee" stroke="none" font-family="Arial" font-size="24px" font-style="normal" font-weight="normal" text-decoration="none" x="0" y="420"></text><text fill="#eeeeee" stroke="none" font-family="Arial" font-size="24px" font-style="normal" font-weight="normal" text-decoration="none" x="0" y="450"></text><text fill="#eeeeee" stroke="none" font-family="Arial" font-size="24px" font-style="normal" font-weight="normal" text-decoration="none" x="0" y="480"></text><text fill="#eeeeee" stroke="none" font-family="Arial" font-size="24px" font-style="normal" font-weight="normal" text-decoration="none" x="0" y="510"></text><text fill="#eeeeee" stroke="none" font-family="Arial" font-size="24px" font-style="normal" font-weight="normal" text-decoration="none" x="0" y="540"></text><text fill="#eeeeee" stroke="none" font-family="Arial" font-size="24px" font-style="normal" font-weight="normal" text-decoration="none" x="0" y="570"></text><text fill="#eeeeee" stroke="none" font-family="Arial" font-size="24px" font-style="normal" font-weight="normal" text-decoration="none" x="0" y="600"></text><text fill="#eeeeee" stroke="none" font-family="Arial" font-size="24px" font-style="normal" font-weight="normal" text-decoration="none" x="0" y="630"></text><text fill="#eeeeee" stroke="none" font-family="Arial" font-size="24px" font-style="normal" font-weight="normal" text-decoration="none" x="0" y="660"></text><text fill="#eeeeee" stroke="none" font-family="Arial" font-size="24px" font-style="normal" font-weight="normal" text-decoration="none" x="0" y="690"></text><text fill="#eeeeee" stroke="none" font-family="Arial" font-size="24px" font-style="normal" font-weight="normal" text-decoration="none" x="0" y="720"></text><text fill="#eeeeee" stroke="none" font-family="Arial" font-size="24px" font-style="normal" font-weight="normal" text-decoration="none" x="0" y="750"></text><text fill="#eeeeee" stroke="none" font-family="Arial" font-size="24px" font-style="normal" font-weight="normal" text-decoration="none" x="0" y="780"></text><text fill="#eeeeee" stroke="none" font-family="Arial" font-size="24px" font-style="normal" font-weight="normal" text-decoration="none" x="200" y="0"></text><text fill="#eeeeee" stroke="none" font-family="Arial" font-size="24px" font-style="normal" font-weight="normal" text-decoration="none" x="200" y="30"></text><text fill="#eeeeee" stroke="none" font-family="Arial" font-size="24px" font-style="normal" font-weight="normal" text-decoration="none" x="200" y="60"></text><text fill="#eeeeee" stroke="none" font-family="Arial" font-size="24px" font-style="normal" font-weight="normal" text-decoration="none" x="200" y="90"></text><text fill="#eeeeee" stroke="none" font-family="Arial" font-size="24px" font-style="normal" font-weight="normal" text-decoration="none" x="200" y="120"></text><text fill="#eeeeee" stroke="none" font-family="Arial" font-size="24px" font-style="normal" font-weight="normal" text-decoration="none" x="200" y="150"></text><text fill="#eeeeee" stroke="none" font-family="Arial" font-size="24px" font-style="normal" font-weight="normal" text-decoration="none" x="200" y="180"></text><text fill="#eeeeee" stroke="none" font-family="Arial" font-size="24px" font-style="normal" font-weight="normal" text-decoration="none" x="200" y="210"></text><text fill="#eeeeee" stroke="none" font-family="Arial" font-size="24px" font-style="normal" font-weight="normal" text-decoration="none" x="200" y="240"></text><text fill="#eeeeee" stroke="none" font-family="Arial" font-size="24px" font-style="normal" font-weight="normal" text-decoration="none" x="200" y="270"></text><text fill="#eeeeee" stroke="none" font-family="Arial" font-size="24px" font-style="normal" font-weight="normal" text-decoration="none" x="200" y="300"></text><text fill="#eeeeee" stroke="none" font-family="Arial" font-size="24px" font-style="normal" font-weight="normal" text-decoration="none" x="200" y="330"></text><text fill="#eeeeee" stroke="none" font-family="Arial" font-size="24px" font-style="normal" font-weight="normal" text-decoration="none" x="200" y="360"></text><text fill="#eeeeee" stroke="none" font-family="Arial" font-size="24px" font-style="normal" font-weight="normal" text-decoration="none" x="200" y="390"></text><text fill="#eeeeee" stroke="none" font-family="Arial" font-size="24px" font-style="normal" font-weight="normal" text-decoration="none" x="200" y="420"></text><text fill="#eeeeee" stroke="none" font-family="Arial" font-size="24px" font-style="normal" font-weight="normal" text-decoration="none" x="200" y="450"></text><text fill="#eeeeee" stroke="none" font-family="Arial" font-size="24px" font-style="normal" font-weight="normal" text-decoration="none" x="200" y="480"></text><text fill="#eeeeee" stroke="none" font-family="Arial" font-size="24px" font-style="normal" font-weight="normal" text-decoration="none" x="200" y="510"></text><text fill="#eeeeee" stroke="none" font-family="Arial" font-size="24px" font-style="normal" font-weight="normal" text-decoration="none" x="200" y="540"></text><text fill="#eeeeee" stroke="none" font-family="Arial" font-size="24px" font-style="normal" font-weight="normal" text-decoration="none" x="200" y="570"></text><text fill="#eeeeee" stroke="none" font-family="Arial" font-size="24px" font-style="normal" font-weight="normal" text-decoration="none" x="200" y="600"></text><text fill="#eeeeee" stroke="none" font-family="Arial" font-size="24px" font-style="normal" font-weight="normal" text-decoration="none" x="200" y="630"></text><text fill="#eeeeee" stroke="none" font-family="Arial" font-size="24px" font-style="normal" font-weight="normal" text-decoration="none" x="200" y="660"></text><text fill="#eeeeee" stroke="none" font-family="Arial" font-size="24px" font-style="normal" font-weight="normal" text-decoration="none" x="200" y="690"></text><text fill="#eeeeee" stroke="none" font-family="Arial" font-size="24px" font-style="normal" font-weight="normal" text-decoration="none" x="200" y="720"></text><text fill="#eeeeee" stroke="none" font-family="Arial" font-size="24px" font-style="normal" font-weight="normal" text-decoration="none" x="200" y="750"></text><text fill="#eeeeee" stroke="none" font-family="Arial" font-size="24px" font-style="normal" font-weight="normal" text-decoration="none" x="200" y="780"></text><text fill="#eeeeee" stroke="none" font-family="Arial" font-size="24px" font-style="normal" font-weight="normal" text-decoration="none" x="400" y="0"></text><text fill="#eeeeee" stroke="none" font-family="Arial" font-size="24px" font-style="normal" font-weight="normal" text-decoration="none" x="400" y="30"></text><text fill="#eeeeee" stroke="none" font-family="Arial" font-size="24px" font-style="normal" font-weight="normal" text-decoration="none" x="400" y="60"></text><text fill="#eeeeee" stroke="none" font-family="Arial" font-size="24px" font-style="normal" font-weight="normal" text-decoration="none" x="400" y="90"></text><text fill="#eeeeee" stroke="none" font-family="Arial" font-size="24px" font-style="normal" font-weight="normal" text-decoration="none" x="400" y="120"></text><text fill="#eeeeee" stroke="none" font-family="Arial" font-size="24px" font-style="normal" font-weight="normal" text-decoration="none" x="400" y="150"></text><text fill="#eeeeee" stroke="none" font-family="Arial" font-size="24px" font-style="normal" font-weight="normal" text-decoration="none" x="400" y="180"></text><text fill="#eeeeee" stroke="none" font-family="Arial" font-size="24px" font-style="normal" font-weight="normal" text-decoration="none" x="400" y="210"></text><text fill="#eeeeee" stroke="none" font-family="Arial" font-size="24px" font-style="normal" font-weight="normal" text-decoration="none" x="400" y="240"></text><text fill="#eeeeee" stroke="none" font-family="Arial" font-size="24px" font-style="normal" font-weight="normal" text-decoration="none" x="400" y="270"></text><text fill="#eeeeee" stroke="none" font-family="Arial" font-size="24px" font-style="normal" font-weight="normal" text-decoration="none" x="400" y="300"></text><text fill="#eeeeee" stroke="none" font-family="Arial" font-size="24px" font-style="normal" font-weight="normal" text-decoration="none" x="400" y="330"></text><text fill="#eeeeee" stroke="none" font-family="Arial" font-size="24px" font-style="normal" font-weight="normal" text-decoration="none" x="400" y="360"></text><text fill="#eeeeee" stroke="none" font-family="Arial" font-size="24px" font-style="normal" font-weight="normal" text-decoration="none" x="400" y="390"></text><text fill="#eeeeee" stroke="none" font-family="Arial" font-size="24px" font-style="normal" font-weight="normal" text-decoration="none" x="400" y="420"></text><text fill="#eeeeee" stroke="none" font-family="Arial" font-size="24px" font-style="normal" font-weight="normal" text-decoration="none" x="400" y="450"></text><text fill="#eeeeee" stroke="none" font-family="Arial" font-size="24px" font-style="normal" font-weight="normal" text-decoration="none" x="400" y="480"></text><text fill="#eeeeee" stroke="none" font-family="Arial" font-size="24px" font-style="normal" font-weight="normal" text-decoration="none" x="400" y="510"></text><text fill="#eeeeee" stroke="none" font-family="Arial" font-size="24px" font-style="normal" font-weight="normal" text-decoration="none" x="400" y="540"></text><text fill="#eeeeee" stroke="none" font-family="Arial" font-size="24px" font-style="normal" font-weight="normal" text-decoration="none" x="400" y="570"></text><text fill="#eeeeee" stroke="none" font-family="Arial" font-size="24px" font-style="normal" font-weight="normal" text-decoration="none" x="400" y="600"></text><text fill="#eeeeee" stroke="none" font-family="Arial" font-size="24px" font-style="normal" font-weight="normal" text-decoration="none" x="400" y="630"></text><text fill="#eeeeee" stroke="none" font-family="Arial" font-size="24px" font-style="normal" font-weight="normal" text-decoration="none" x="400" y="660"></text><text fill="#eeeeee" stroke="none" font-family="Arial" font-size="24px" font-style="normal" font-weight="normal" text-decoration="none" x="400" y="690"></text><text fill="#eeeeee" stroke="none" font-family="Arial" font-size="24px" font-style="normal" font-weight="normal" text-decoration="none" x="400" y="720"></text><text fill="#eeeeee" stroke="none" font-family="Arial" font-size="24px" font-style="normal" font-weight="normal" text-decoration="none" x="400" y="750"></text><text fill="#eeeeee" stroke="none" font-family="Arial" font-size="24px" font-style="normal" font-weight="normal" text-decoration="none" x="400" y="780"></text><text fill="#eeeeee" stroke="none" font-family="Arial" font-size="24px" font-style="normal" font-weight="normal" text-decoration="none" x="600" y="0"></text><text fill="#eeeeee" stroke="none" font-family="Arial" font-size="24px" font-style="normal" font-weight="normal" text-decoration="none" x="600" y="30"></text><text fill="#eeeeee" stroke="none" font-family="Arial" font-size="24px" font-style="normal" font-weight="normal" text-decoration="none" x="600" y="60"></text><text fill="#eeeeee" stroke="none" font-family="Arial" font-size="24px" font-style="normal" font-weight="normal" text-decoration="none" x="600" y="90"></text><text fill="#eeeeee" stroke="none" font-family="Arial" font-size="24px" font-style="normal" font-weight="normal" text-decoration="none" x="600" y="120"></text><text fill="#eeeeee" stroke="none" font-family="Arial" font-size="24px" font-style="normal" font-weight="normal" text-decoration="none" x="600" y="150"></text><text fill="#eeeeee" stroke="none" font-family="Arial" font-size="24px" font-style="normal" font-weight="normal" text-decoration="none" x="600" y="180"></text><text fill="#eeeeee" stroke="none" font-family="Arial" font-size="24px" font-style="normal" font-weight="normal" text-decoration="none" x="600" y="210"></text><text fill="#eeeeee" stroke="none" font-family="Arial" font-size="24px" font-style="normal" font-weight="normal" text-decoration="none" x="600" y="240"></text><text fill="#eeeeee" stroke="none" font-family="Arial" font-size="24px" font-style="normal" font-weight="normal" text-decoration="none" x="600" y="270"></text><text fill="#eeeeee" stroke="none" font-family="Arial" font-size="24px" font-style="normal" font-weight="normal" text-decoration="none" x="600" y="300"></text><text fill="#eeeeee" stroke="none" font-family="Arial" font-size="24px" font-style="normal" font-weight="normal" text-decoration="none" x="600" y="330"></text><text fill="#eeeeee" stroke="none" font-family="Arial" font-size="24px" font-style="normal" font-weight="normal" text-decoration="none" x="600" y="360"></text><text fill="#eeeeee" stroke="none" font-family="Arial" font-size="24px" font-style="normal" font-weight="normal" text-decoration="none" x="600" y="390"></text><text fill="#eeeeee" stroke="none" font-family="Arial" font-size="24px" font-style="normal" font-weight="normal" text-decoration="none" x="600" y="420"></text><text fill="#eeeeee" stroke="none" font-family="Arial" font-size="24px" font-style="normal" font-weight="normal" text-decoration="none" x="600" y="450"></text><text fill="#eeeeee" stroke="none" font-family="Arial" font-size="24px" font-style="normal" font-weight="normal" text-decoration="none" x="600" y="480"></text><text fill="#eeeeee" stroke="none" font-family="Arial" font-size="24px" font-style="normal" font-weight="normal" text-decoration="none" x="600" y="510"></text><text fill="#eeeeee" stroke="none" font-family="Arial" font-size="24px" font-style="normal" font-weight="normal" text-decoration="none" x="600" y="540"></text><text fill="#eeeeee" stroke="none" font-family="Arial" font-size="24px" font-style="normal" font-weight="normal" text-decoration="none" x="600" y="570"></text><text fill="#eeeeee" stroke="none" font-family="Arial" font-size="24px" font-style="normal" font-weight="normal" text-decoration="none" x="600" y="600"></text><text fill="#eeeeee" stroke="none" font-family="Arial" font-size="24px" font-style="normal" font-weight="normal" text-decoration="none" x="600" y="630"></text><text fill="#eeeeee" stroke="none" font-family="Arial" font-size="24px" font-style="normal" font-weight="normal" text-decoration="none" x="600" y="660"></text><text fill="#eeeeee" stroke="none" font-family="Arial" font-size="24px" font-style="normal" font-weight="normal" text-decoration="none" x="600" y="690"></text><text fill="#eeeeee" stroke="none" font-family="Arial" font-size="24px" font-style="normal" font-weight="normal" text-decoration="none" x="600" y="720"></text><text fill="#eeeeee" stroke="none" font-family="Arial" font-size="24px" font-style="normal" font-weight="normal" text-decoration="none" x="600" y="750"></text><text fill="#eeeeee" stroke="none" font-family="Arial" font-size="24px" font-style="normal" font-weight="normal" text-decoration="none" x="600" y="780"></text><text fill="#eeeeee" stroke="none" font-family="Arial" font-size="24px" font-style="normal" font-weight="normal" text-decoration="none" x="800" y="0"></text><text fill="#eeeeee" stroke="none" font-family="Arial" font-size="24px" font-style="normal" font-weight="normal" text-decoration="none" x="800" y="30"></text><text fill="#eeeeee" stroke="none" font-family="Arial" font-size="24px" font-style="normal" font-weight="normal" text-decoration="none" x="800" y="60"></text><text fill="#eeeeee" stroke="none" font-family="Arial" font-size="24px" font-style="normal" font-weight="normal" text-decoration="none" x="800" y="90"></text><text fill="#eeeeee" stroke="none" font-family="Arial" font-size="24px" font-style="normal" font-weight="normal" text-decoration="none" x="800" y="120"></text><text fill="#eeeeee" stroke="none" font-family="Arial" font-size="24px" font-style="normal" font-weight="normal" text-decoration="none" x="800" y="150"></text><text fill="#eeeeee" stroke="none" font-family="Arial" font-size="24px" font-style="normal" font-weight="normal" text-decoration="none" x="800" y="180"></text><text fill="#eeeeee" stroke="none" font-family="Arial" font-size="24px" font-style="normal" font-weight="normal" text-decoration="none" x="800" y="210"></text><text fill="#eeeeee" stroke="none" font-family="Arial" font-size="24px" font-style="normal" font-weight="normal" text-decoration="none" x="800" y="240"></text><text fill="#eeeeee" stroke="none" font-family="Arial" font-size="24px" font-style="normal" font-weight="normal" text-decoration="none" x="800" y="270"></text><text fill="#eeeeee" stroke="none" font-family="Arial" font-size="24px" font-style="normal" font-weight="normal" text-decoration="none" x="800" y="300"></text><text fill="#eeeeee" stroke="none" font-family="Arial" font-size="24px" font-style="normal" font-weight="normal" text-decoration="none" x="800" y="330"></text><text fill="#eeeeee" stroke="none" font-family="Arial" font-size="24px" font-style="normal" font-weight="normal" text-decoration="none" x="800" y="360"></text><text fill="#eeeeee" stroke="none" font-family="Arial" font-size="24px" font-style="normal" font-weight="normal" text-decoration="none" x="800" y="390"></text><text fill="#eeeeee" stroke="none" font-family="Arial" font-size="24px" font-style="normal" font-weight="normal" text-decoration="none" x="800" y="420"></text><text fill="#eeeeee" stroke="none" font-family="Arial" font-size="24px" font-style="normal" font-weight="normal" text-decoration="none" x="800" y="450"></text><text fill="#eeeeee" stroke="none" font-family="Arial" font-size="24px" font-style="normal" font-weight="normal" text-decoration="none" x="800" y="480"></text><text fill="#eeeeee" stroke="none" font-family="Arial" font-size="24px" font-style="normal" font-weight="normal" text-decoration="none" x="800" y="510"></text><text fill="#eeeeee" stroke="none" font-family="Arial" font-size="24px" font-style="normal" font-weight="normal" text-decoration="none" x="800" y="540"></text><text fill="#eeeeee" stroke="none" font-family="Arial" font-size="24px" font-style="normal" font-weight="normal" text-decoration="none" x="800" y="570"></text><text fill="#eeeeee" stroke="none" font-family="Arial" font-size="24px" font-style="normal" font-weight="normal" text-decoration="none" x="800" y="600"></text><text fill="#eeeeee" stroke="none" font-family="Arial" font-size="24px" font-style="normal" font-weight="normal" text-decoration="none" x="800" y="630"></text><text fill="#eeeeee" stroke="none" font-family="Arial" font-size="24px" font-style="normal" font-weight="normal" text-decoration="none" x="800" y="660"></text><text fill="#eeeeee" stroke="none" font-family="Arial" font-size="24px" font-style="normal" font-weight="normal" text-decoration="none" x="800" y="690"></text><text fill="#eeeeee" stroke="none" font-family="Arial" font-size="24px" font-style="normal" font-weight="normal" text-decoration="none" x="800" y="720"></text><text fill="#eeeeee" stroke="none" font-family="Arial" font-size="24px" font-style="normal" font-weight="normal" text-decoration="none" x="800" y="750"></text><text fill="#eeeeee" stroke="none" font-family="Arial" font-size="24px" font-style="normal" font-weight="normal" text-decoration="none" x="800" y="780"></text><g transform="translate(-86,-22) scale(1,1)"><rect fill="#C0C0C0" stroke="none" x="287" y="39" width="599" height="767" opacity="0.2"/></g><g transform="translate(-86,-22) scale(1,1)"><rect fill="#ffffff" stroke="none" x="280" y="32" width="599" height="767"/></g><g transform="translate(-86,-22) scale(1,1)"><path fill="none" stroke="#000000" d="M 280 32 L 879 32 L 879 799 L 280 799 L 280 32 Z Z" stroke-miterlimit="10"/></g><g transform="translate(-86,-22) scale(1,1)"><g><path fill="none" stroke="none"/><text fill="#000000" stroke="none" font-family="Arial" font-size="13px" font-style="normal" font-weight="bold" text-decoration="none" x="568.299560546875" y="51.5">Site</text></g></g><g transform="translate(-86,-22) scale(1,1)"><path fill="#ffffff" stroke="none" d="M 136.40935031960228 161.68 C 136.40935031960228 156.886167936 140.29519264454774 153 145.088623046875 153 C 149.88205344920226 153 153.76789577414772 156.886167936 153.76789577414772 161.68 C 153.76789577414772 166.47383206400002 149.88205344920226 170.36 145.088623046875 170.36 C 140.29519264454774 170.36 136.40935031960228 166.47383206400002 136.40935031960228 161.68 Z"/></g><g transform="translate(-86,-22) scale(1,1)"><path fill="none" stroke="#000000" d="M 136.40935031960228 161.68 C 136.40935031960228 156.886167936 140.29519264454774 153 145.088623046875 153 C 149.88205344920226 153 153.76789577414772 156.886167936 153.76789577414772 161.68 C 153.76789577414772 166.47383206400002 149.88205344920226 170.36 145.088623046875 170.36 C 140.29519264454774 170.36 136.40935031960228 166.47383206400002 136.40935031960228 161.68 Z" stroke-miterlimit="10"/></g><g transform="translate(-86,-22) scale(1,1)"><path fill="none" stroke="#000000" d="M 145.088623046875 170.36 L 145.088623046875 187.64" stroke-miterlimit="10"/></g><g transform="translate(-86,-22) scale(1,1)"><path fill="none" stroke="#000000" d="M 135.89880486505683 176.84 L 154.27844122869317 176.84" stroke-miterlimit="10"/></g><g transform="translate(-86,-22) scale(1,1)"><path fill="none" stroke="#000000" d="M 145.088623046875 187.64 L 132.32498668323865 205" stroke-miterlimit="10"/></g><g transform="translate(-86,-22) scale(1,1)"><path fill="none" stroke="#000000" d="M 145.088623046875 187.64 L 157.85225941051135 205" stroke-miterlimit="10"/></g><g transform="translate(-86,-22) scale(1,1)"><g><path fill="none" stroke="none"/><text fill="#000000" stroke="none" font-family="Arial" font-size="13px" font-style="normal" font-weight="bold" text-decoration="none" x="131.364990234375" y="225.5">User</text></g></g><g transform="translate(-86,-22) scale(1,1)"><path fill="#ffffff" stroke="none" d="M 127.58659641335228 529.6800000000001 C 127.58659641335228 524.8861679360001 131.47243873829774 521 136.265869140625 521 C 141.05929954295226 521 144.94514186789772 524.8861679360001 144.94514186789772 529.6800000000001 C 144.94514186789772 534.473832064 141.05929954295226 538.36 136.265869140625 538.36 C 131.47243873829774 538.36 127.58659641335228 534.473832064 127.58659641335228 529.6800000000001 Z"/></g><g transform="translate(-86,-22) scale(1,1)"><path fill="none" stroke="#000000" d="M 127.58659641335228 529.6800000000001 C 127.58659641335228 524.8861679360001 131.47243873829774 521 136.265869140625 521 C 141.05929954295226 521 144.94514186789772 524.8861679360001 144.94514186789772 529.6800000000001 C 144.94514186789772 534.473832064 141.05929954295226 538.36 136.265869140625 538.36 C 131.47243873829774 538.36 127.58659641335228 534.473832064 127.58659641335228 529.6800000000001 Z" stroke-miterlimit="10"/></g><g transform="translate(-86,-22) scale(1,1)"><path fill="none" stroke="#000000" d="M 136.265869140625 538.36 L 136.265869140625 555.64" stroke-miterlimit="10"/></g><g transform="translate(-86,-22) scale(1,1)"><path fill="none" stroke="#000000" d="M 127.07605095880683 544.84 L 145.45568732244317 544.84" stroke-miterlimit="10"/></g><g transform="translate(-86,-22) scale(1,1)"><path fill="none" stroke="#000000" d="M 136.265869140625 555.64 L 123.50223277698865 573" stroke-miterlimit="10"/></g><g transform="translate(-86,-22) scale(1,1)"><path fill="none" stroke="#000000" d="M 136.265869140625 555.64 L 149.02950550426135 573" stroke-miterlimit="10"/></g><g transform="translate(-86,-22) scale(1,1)"><g><path fill="none" stroke="none"/><text fill="#000000" stroke="none" font-family="Arial" font-size="13px" font-style="normal" font-weight="bold" text-decoration="none" x="103.40087890625" y="593.5">User Inscrit</text></g></g><g transform="translate(-86,-22) scale(1,1)"><path fill="none" stroke="#000000" d="M 137 519 L 144 232" stroke-miterlimit="10"/></g><g transform="translate(-86,-22) scale(1,1)"><path fill="#FFFFFF" stroke="none" d="M 151.92093960525153 252.5245880779605 L 144 232 L 135.08787469725604 252.11402551922887"/></g><g transform="translate(-86,-22) scale(1,1)"><path fill="none" stroke="#000000" d="M 151.92093960525153 252.5245880779605 L 144 232 L 135.08787469725604 252.11402551922887 L 151.92093960525153 252.5245880779605" stroke-miterlimit="10"/></g><g transform="translate(-86,-22) scale(1,1)"><path fill="#C0C0C0" stroke="none" d="M 343 170.5 C 343 159.7304464 367.8481936 151 398.5 151 C 429.1518064 151 454 159.7304464 454 170.5 C 454 181.2695536 429.1518064 190 398.5 190 C 367.8481936 190 343 181.2695536 343 170.5 Z" opacity="0.2"/></g><g transform="translate(-86,-22) scale(1,1)"><path fill="#ffffff" stroke="none" d="M 336 163.5 C 336 152.7304464 360.8481936 144 391.5 144 C 422.1518064 144 447 152.7304464 447 163.5 C 447 174.2695536 422.1518064 183 391.5 183 C 360.8481936 183 336 174.2695536 336 163.5 Z"/></g><g transform="translate(-86,-22) scale(1,1)"><path fill="none" stroke="#000000" d="M 336 163.5 C 336 152.7304464 360.8481936 144 391.5 144 C 422.1518064 144 447 152.7304464 447 163.5 C 447 174.2695536 422.1518064 183 391.5 183 C 360.8481936 183 336 174.2695536 336 163.5 Z" stroke-miterlimit="10"/></g><g transform="translate(-86,-22) scale(1,1)"><g><path fill="none" stroke="none"/><text fill="#000000" stroke="none" font-family="Arial" font-size="13px" font-style="normal" font-weight="bold" text-decoration="none" x="364.976318359375" y="170.5">S'inscrire</text></g></g><g transform="translate(-86,-22) scale(1,1)"><path fill="none" stroke="#000000" d="M 171 188 L 335 169" stroke-miterlimit="10"/></g><g transform="translate(-86,-22) scale(1,1)"><path fill="#C0C0C0" stroke="none" d="M 335 450.5 C 335 435.312168 363.6537728 423 399 423 C 434.3462272 423 463 435.312168 463 450.5 C 463 465.687832 434.3462272 478 399 478 C 363.6537728 478 335 465.687832 335 450.5 Z" opacity="0.2"/></g><g transform="translate(-86,-22) scale(1,1)"><path fill="#ffffff" stroke="none" d="M 328 443.5 C 328 428.312168 356.6537728 416 392 416 C 427.3462272 416 456 428.312168 456 443.5 C 456 458.687832 427.3462272 471 392 471 C 356.6537728 471 328 458.687832 328 443.5 Z"/></g><g transform="translate(-86,-22) scale(1,1)"><path fill="none" stroke="#000000" d="M 328 443.5 C 328 428.312168 356.6537728 416 392 416 C 427.3462272 416 456 428.312168 456 443.5 C 456 458.687832 427.3462272 471 392 471 C 356.6537728 471 328 458.687832 328 443.5 Z" stroke-miterlimit="10"/></g><g transform="translate(-86,-22) scale(1,1)"><g><path fill="none" stroke="none"/><text fill="#000000" stroke="none" font-family="Arial" font-size="13px" font-style="normal" font-weight="bold" text-decoration="none" x="353.6982421875" y="450.5">Se connecter</text></g></g><g transform="translate(-86,-22) scale(1,1)"><path fill="none" stroke="#000000" d="M 178 540 L 328 472" stroke-miterlimit="10"/></g><g transform="translate(-86,-22) scale(1,1)"><path fill="#C0C0C0" stroke="none" d="M 367 568 C 367 558.6111584 407.9659408 551 458.5 551 C 509.0340592 551 550 558.6111584 550 568 C 550 577.3888416 509.0340592 585 458.5 585 C 407.9659408 585 367 577.3888416 367 568 Z" opacity="0.2"/></g><g transform="translate(-86,-22) scale(1,1)"><path fill="#ffffff" stroke="none" d="M 360 561 C 360 551.6111584 400.9659408 544 451.5 544 C 502.0340592 544 543 551.6111584 543 561 C 543 570.3888416 502.0340592 578 451.5 578 C 400.9659408 578 360 570.3888416 360 561 Z"/></g><g transform="translate(-86,-22) scale(1,1)"><path fill="none" stroke="#000000" d="M 360 561 C 360 551.6111584 400.9659408 544 451.5 544 C 502.0340592 544 543 551.6111584 543 561 C 543 570.3888416 502.0340592 578 451.5 578 C 400.9659408 578 360 570.3888416 360 561 Z" stroke-miterlimit="10"/></g><g transform="translate(-86,-22) scale(1,1)"><g><path fill="none" stroke="none"/><text fill="#000000" stroke="none" font-family="Arial" font-size="13px" font-style="normal" font-weight="bold" text-decoration="none" x="395.50732421875" y="568">Creer un formulaire</text></g></g><g transform="translate(-86,-22) scale(1,1)"><path fill="none" stroke="#000000" d="M 442 543 L 407 472" stroke-miterlimit="10" stroke-dasharray="3"/></g><g transform="translate(-86,-22) scale(1,1)"><path fill="none" stroke="#000000" d="M 415.26914278106034 479.25405249956447 L 407 472 L 407.7177772215623 482.9765566486128" stroke-miterlimit="10"/></g><g transform="translate(-86,-22) scale(1,1)"><g><path fill="none" stroke="none"/><text fill="#000000" stroke="none" font-family="Arial" font-size="13px" font-style="normal" font-weight="normal" text-decoration="none" x="370.5" y="526.5">«extend»</text></g></g><g transform="translate(-86,-22) scale(1,1)"><path fill="#C0C0C0" stroke="none" d="M 479 370.5 C 479 359.7304464 522.8760896 351 577 351 C 631.1239104 351 675 359.7304464 675 370.5 C 675 381.2695536 631.1239104 390 577 390 C 522.8760896 390 479 381.2695536 479 370.5 Z" opacity="0.2"/></g><g transform="translate(-86,-22) scale(1,1)"><path fill="#ffffff" stroke="none" d="M 472 363.5 C 472 352.7304464 515.8760896 344 570 344 C 624.1239104 344 668 352.7304464 668 363.5 C 668 374.2695536 624.1239104 383 570 383 C 515.8760896 383 472 374.2695536 472 363.5 Z"/></g><g transform="translate(-86,-22) scale(1,1)"><path fill="none" stroke="#000000" d="M 472 363.5 C 472 352.7304464 515.8760896 344 570 344 C 624.1239104 344 668 352.7304464 668 363.5 C 668 374.2695536 624.1239104 383 570 383 C 515.8760896 383 472 374.2695536 472 363.5 Z" stroke-miterlimit="10"/></g><g transform="translate(-86,-22) scale(1,1)"><g><path fill="none" stroke="none"/><text fill="#000000" stroke="none" font-family="Arial" font-size="13px" font-style="normal" font-weight="bold" text-decoration="none" x="510.036865234375" y="370.5">Acceder Formulaires</text></g></g><g transform="translate(-86,-22) scale(1,1)"><path fill="none" stroke="#000000" d="M 523 384 L 454 415" stroke-miterlimit="10" stroke-dasharray="3"/></g><g transform="translate(-86,-22) scale(1,1)"><path fill="none" stroke="#000000" d="M 461.5449506853896 406.9953938788321 L 454 415 L 464.99519706236225 414.67497452435185" stroke-miterlimit="10"/></g><g transform="translate(-86,-22) scale(1,1)"><g><path fill="none" stroke="none"/><text fill="#000000" stroke="none" font-family="Arial" font-size="13px" font-style="normal" font-weight="normal" text-decoration="none" x="473.5" y="432.5">«extend»</text></g></g><g transform="translate(-86,-22) scale(1,1)"><path fill="#C0C0C0" stroke="none" d="M 703 304 C 703 294.6111584 735.6832096 287 776 287 C 816.3167904 287 849 294.6111584 849 304 C 849 313.3888416 816.3167904 321 776 321 C 735.6832096 321 703 313.3888416 703 304 Z" opacity="0.2"/></g><g transform="translate(-86,-22) scale(1,1)"><path fill="#ffffff" stroke="none" d="M 696 297 C 696 287.6111584 728.6832096 280 769 280 C 809.3167904 280 842 287.6111584 842 297 C 842 306.3888416 809.3167904 314 769 314 C 728.6832096 314 696 306.3888416 696 297 Z"/></g><g transform="translate(-86,-22) scale(1,1)"><path fill="none" stroke="#000000" d="M 696 297 C 696 287.6111584 728.6832096 280 769 280 C 809.3167904 280 842 287.6111584 842 297 C 842 306.3888416 809.3167904 314 769 314 C 728.6832096 314 696 306.3888416 696 297 Z" stroke-miterlimit="10"/></g><g transform="translate(-86,-22) scale(1,1)"><g><path fill="none" stroke="none"/><text fill="#000000" stroke="none" font-family="Arial" font-size="13px" font-style="normal" font-weight="bold" text-decoration="none" x="725.648681640625" y="304">Consulter stats</text></g></g><g transform="translate(-86,-22) scale(1,1)"><path fill="none" stroke="#000000" d="M 715 315 L 630 343" stroke-miterlimit="10" stroke-dasharray="3"/></g><g transform="translate(-86,-22) scale(1,1)"><path fill="none" stroke="#000000" d="M 638.3354086721984 335.8221895910075 L 630 343 L 640.9695024103426 343.8185455818026" stroke-miterlimit="10"/></g><g transform="translate(-86,-22) scale(1,1)"><g><path fill="none" stroke="none"/><text fill="#000000" stroke="none" font-family="Arial" font-size="13px" font-style="normal" font-weight="normal" text-decoration="none" x="654.5" y="363.5">«extend»</text></g></g><g transform="translate(-86,-22) scale(1,1)"><path fill="#ffffff" stroke="none" d="M 960.4093503196023 465.68 C 960.4093503196023 460.886167936 964.2951926445477 457 969.088623046875 457 C 973.8820534492023 457 977.7678957741477 460.886167936 977.7678957741477 465.68 C 977.7678957741477 470.473832064 973.8820534492023 474.36 969.088623046875 474.36 C 964.2951926445477 474.36 960.4093503196023 470.473832064 960.4093503196023 465.68 Z"/></g><g transform="translate(-86,-22) scale(1,1)"><path fill="none" stroke="#000000" d="M 960.4093503196023 465.68 C 960.4093503196023 460.886167936 964.2951926445477 457 969.088623046875 457 C 973.8820534492023 457 977.7678957741477 460.886167936 977.7678957741477 465.68 C 977.7678957741477 470.473832064 973.8820534492023 474.36 969.088623046875 474.36 C 964.2951926445477 474.36 960.4093503196023 470.473832064 960.4093503196023 465.68 Z" stroke-miterlimit="10"/></g><g transform="translate(-86,-22) scale(1,1)"><path fill="none" stroke="#000000" d="M 969.088623046875 474.36 L 969.088623046875 491.64" stroke-miterlimit="10"/></g><g transform="translate(-86,-22) scale(1,1)"><path fill="none" stroke="#000000" d="M 959.8988048650568 480.84 L 978.2784412286932 480.84" stroke-miterlimit="10"/></g><g transform="translate(-86,-22) scale(1,1)"><path fill="none" stroke="#000000" d="M 969.088623046875 491.64 L 956.3249866832386 509" stroke-miterlimit="10"/></g><g transform="translate(-86,-22) scale(1,1)"><path fill="none" stroke="#000000" d="M 969.088623046875 491.64 L 981.8522594105114 509" stroke-miterlimit="10"/></g><g transform="translate(-86,-22) scale(1,1)"><g><path fill="none" stroke="none"/><text fill="#000000" stroke="none" font-family="Arial" font-size="13px" font-style="normal" font-weight="bold" text-decoration="none" x="960.05908203125" y="529.5">BD</text></g></g><g transform="translate(-86,-22) scale(1,1)"><path fill="#C0C0C0" stroke="none" d="M 703 558.5 C 703 541.1030288 728.9674816 527 761 527 C 793.0325184 527 819 541.1030288 819 558.5 C 819 575.8969712 793.0325184 590 761 590 C 728.9674816 590 703 575.8969712 703 558.5 Z" opacity="0.2"/></g><g transform="translate(-86,-22) scale(1,1)"><path fill="#ffffff" stroke="none" d="M 696 551.5 C 696 534.1030288 721.9674816 520 754 520 C 786.0325184 520 812 534.1030288 812 551.5 C 812 568.8969712 786.0325184 583 754 583 C 721.9674816 583 696 568.8969712 696 551.5 Z"/></g><g transform="translate(-86,-22) scale(1,1)"><path fill="none" stroke="#000000" d="M 696 551.5 C 696 534.1030288 721.9674816 520 754 520 C 786.0325184 520 812 534.1030288 812 551.5 C 812 568.8969712 786.0325184 583 754 583 C 721.9674816 583 696 568.8969712 696 551.5 Z" stroke-miterlimit="10"/></g><g transform="translate(-86,-22) scale(1,1)"><g><path fill="none" stroke="none"/><text fill="#000000" stroke="none" font-family="Arial" font-size="13px" font-style="normal" font-weight="bold" text-decoration="none" x="719.671875" y="558.5">Stocke data</text></g></g><g transform="translate(-86,-22) scale(1,1)"><path fill="none" stroke="#000000" d="M 943 502 L 813 536" stroke-miterlimit="10"/></g><g transform="translate(-86,-22) scale(1,1)"><path fill="#C0C0C0" stroke="none" d="M 711 440 C 711 430.6111584 737.6390544 423 770.5 423 C 803.3609456 423 830 430.6111584 830 440 C 830 449.3888416 803.3609456 457 770.5 457 C 737.6390544 457 711 449.3888416 711 440 Z" opacity="0.2"/></g><g transform="translate(-86,-22) scale(1,1)"><path fill="#ffffff" stroke="none" d="M 704 433 C 704 423.6111584 730.6390544 416 763.5 416 C 796.3609456 416 823 423.6111584 823 433 C 823 442.3888416 796.3609456 450 763.5 450 C 730.6390544 450 704 442.3888416 704 433 Z"/></g><g transform="translate(-86,-22) scale(1,1)"><path fill="none" stroke="#000000" d="M 704 433 C 704 423.6111584 730.6390544 416 763.5 416 C 796.3609456 416 823 423.6111584 823 433 C 823 442.3888416 796.3609456 450 763.5 450 C 730.6390544 450 704 442.3888416 704 433 Z" stroke-miterlimit="10"/></g><g transform="translate(-86,-22) scale(1,1)"><g><path fill="none" stroke="none"/><text fill="#000000" stroke="none" font-family="Arial" font-size="13px" font-style="normal" font-weight="bold" text-decoration="none" x="728.813232421875" y="440">Fournit data</text></g></g><g transform="translate(-86,-22) scale(1,1)"><path fill="none" stroke="#000000" d="M 943 487 L 823 451" stroke-miterlimit="10"/></g><g transform="translate(-86,-22) scale(1,1)"><path fill="#C0C0C0" stroke="none" d="M 647 256 C 647 246.6111584 671.1766208 239 701 239 C 730.8233792 239 755 246.6111584 755 256 C 755 265.3888416 730.8233792 273 701 273 C 671.1766208 273 647 265.3888416 647 256 Z" opacity="0.2"/></g><g transform="translate(-86,-22) scale(1,1)"><path fill="#ffffff" stroke="none" d="M 640 249 C 640 239.6111584 664.1766208 232 694 232 C 723.8233792 232 748 239.6111584 748 249 C 748 258.3888416 723.8233792 266 694 266 C 664.1766208 266 640 258.3888416 640 249 Z"/></g><g transform="translate(-86,-22) scale(1,1)"><path fill="none" stroke="#000000" d="M 640 249 C 640 239.6111584 664.1766208 232 694 232 C 723.8233792 232 748 239.6111584 748 249 C 748 258.3888416 723.8233792 266 694 266 C 664.1766208 266 640 258.3888416 640 249 Z" stroke-miterlimit="10"/></g><g transform="translate(-86,-22) scale(1,1)"><g><path fill="none" stroke="none"/><text fill="#000000" stroke="none" font-family="Arial" font-size="13px" font-style="normal" font-weight="bold" text-decoration="none" x="662.92822265625" y="256">Copier lien</text></g></g><g transform="translate(-86,-22) scale(1,1)"><path fill="#C0C0C0" stroke="none" d="M 527 256 C 527 246.6111584 549.6096176 239 577.5 239 C 605.3903824 239 628 246.6111584 628 256 C 628 265.3888416 605.3903824 273 577.5 273 C 549.6096176 273 527 265.3888416 527 256 Z" opacity="0.2"/></g><g transform="translate(-86,-22) scale(1,1)"><path fill="#ffffff" stroke="none" d="M 520 249 C 520 239.6111584 542.6096176 232 570.5 232 C 598.3903824 232 621 239.6111584 621 249 C 621 258.3888416 598.3903824 266 570.5 266 C 542.6096176 266 520 258.3888416 520 249 Z"/></g><g transform="translate(-86,-22) scale(1,1)"><path fill="none" stroke="#000000" d="M 520 249 C 520 239.6111584 542.6096176 232 570.5 232 C 598.3903824 232 621 239.6111584 621 249 C 621 258.3888416 598.3903824 266 570.5 266 C 542.6096176 266 520 258.3888416 520 249 Z" stroke-miterlimit="10"/></g><g transform="translate(-86,-22) scale(1,1)"><g><path fill="none" stroke="none"/><text fill="#000000" stroke="none" font-family="Arial" font-size="13px" font-style="normal" font-weight="bold" text-decoration="none" x="550.635009765625" y="256">Activer</text></g></g><g transform="translate(-86,-22) scale(1,1)"><path fill="#C0C0C0" stroke="none" d="M 391 272 C 391 262.6111584 414.7289056 255 444 255 C 473.2710944 255 497 262.6111584 497 272 C 497 281.3888416 473.2710944 289 444 289 C 414.7289056 289 391 281.3888416 391 272 Z" opacity="0.2"/></g><g transform="translate(-86,-22) scale(1,1)"><path fill="#ffffff" stroke="none" d="M 384 265 C 384 255.6111584 407.7289056 248 437 248 C 466.2710944 248 490 255.6111584 490 265 C 490 274.3888416 466.2710944 282 437 282 C 407.7289056 282 384 274.3888416 384 265 Z"/></g><g transform="translate(-86,-22) scale(1,1)"><path fill="none" stroke="#000000" d="M 384 265 C 384 255.6111584 407.7289056 248 437 248 C 466.2710944 248 490 255.6111584 490 265 C 490 274.3888416 466.2710944 282 437 282 C 407.7289056 282 384 274.3888416 384 265 Z" stroke-miterlimit="10"/></g><g transform="translate(-86,-22) scale(1,1)"><g><path fill="none" stroke="none"/><text fill="#000000" stroke="none" font-family="Arial" font-size="13px" font-style="normal" font-weight="bold" text-decoration="none" x="406.29638671875" y="272">Désactiver</text></g></g><g transform="translate(-86,-22) scale(1,1)"><path fill="#C0C0C0" stroke="none" d="M 327 320 C 327 310.6111584 350.505048 303 379.5 303 C 408.494952 303 432 310.6111584 432 320 C 432 329.3888416 408.494952 337 379.5 337 C 350.505048 337 327 329.3888416 327 320 Z" opacity="0.2"/></g><g transform="translate(-86,-22) scale(1,1)"><path fill="#ffffff" stroke="none" d="M 320 313 C 320 303.6111584 343.505048 296 372.5 296 C 401.494952 296 425 303.6111584 425 313 C 425 322.3888416 401.494952 330 372.5 330 C 343.505048 330 320 322.3888416 320 313 Z"/></g><g transform="translate(-86,-22) scale(1,1)"><path fill="none" stroke="#000000" d="M 320 313 C 320 303.6111584 343.505048 296 372.5 296 C 401.494952 296 425 303.6111584 425 313 C 425 322.3888416 401.494952 330 372.5 330 C 343.505048 330 320 322.3888416 320 313 Z" stroke-miterlimit="10"/></g><g transform="translate(-86,-22) scale(1,1)"><g><path fill="none" stroke="none"/><text fill="#000000" stroke="none" font-family="Arial" font-size="13px" font-style="normal" font-weight="bold" text-decoration="none" x="342.516845703125" y="320">Supprimer</text></g></g><g transform="translate(-86,-22) scale(1,1)"><path fill="none" stroke="#000000" d="M 426 327 L 491 343" stroke-miterlimit="10" stroke-dasharray="3"/></g><g transform="translate(-86,-22) scale(1,1)"><path fill="none" stroke="#000000" d="M 480.1257365805829 344.6584315135475 L 491 343 L 482.13804642635847 336.48342276508424" stroke-miterlimit="10"/></g><g transform="translate(-86,-22) scale(1,1)"><g><path fill="none" stroke="none"/><text fill="#000000" stroke="none" font-family="Arial" font-size="13px" font-style="normal" font-weight="normal" text-decoration="none" x="438.5" y="311.5">«extend»</text></g></g><g transform="translate(-86,-22) scale(1,1)"><path fill="none" stroke="#000000" d="M 461 283 L 543 343" stroke-miterlimit="10" stroke-dasharray="3"/></g><g transform="translate(-86,-22) scale(1,1)"><path fill="none" stroke="#000000" d="M 532.3126508936256 340.3960474123983 L 543 343 L 537.2841755065562 333.6016304413932" stroke-miterlimit="10"/></g><g transform="translate(-86,-22) scale(1,1)"><g><path fill="none" stroke="none"/><text fill="#000000" stroke="none" font-family="Arial" font-size="13px" font-style="normal" font-weight="normal" text-decoration="none" x="492.5" y="294.5">«extend»</text></g></g><g transform="translate(-86,-22) scale(1,1)"><path fill="none" stroke="#000000" d="M 570 267 L 570 343" stroke-miterlimit="10" stroke-dasharray="3"/></g><g transform="translate(-86,-22) scale(1,1)"><path fill="none" stroke="#000000" d="M 565.790482243984 332.83732514237585 L 570 343 L 574.209517756016 332.83732514237585" stroke-miterlimit="10"/></g><g transform="translate(-86,-22) scale(1,1)"><g><path fill="none" stroke="none"/><text fill="#000000" stroke="none" font-family="Arial" font-size="13px" font-style="normal" font-weight="normal" text-decoration="none" x="572.5" y="310.5">«extend»</text></g></g><g transform="translate(-86,-22) scale(1,1)"><path fill="none" stroke="#000000" d="M 674 267 L 592 343" stroke-miterlimit="10" stroke-dasharray="3"/></g><g transform="translate(-86,-22) scale(1,1)"><path fill="none" stroke="#000000" d="M 596.5921322073762 333.00438487185613 L 592 343 L 602.3150950631822 339.1791605846995" stroke-miterlimit="10"/></g><g transform="translate(-86,-22) scale(1,1)"><g><path fill="none" stroke="none"/><text fill="#000000" stroke="none" font-family="Arial" font-size="13px" font-style="normal" font-weight="normal" text-decoration="none" x="626.5" y="333.5">«extend»</text></g></g></g></svg>